<svg xmlns="http://www.w3.org/2000/svg" xmlns:xlink="http://www.w3.org/1999/xlink" width="1080" zoomAndPan="magnify" viewBox="0 0 810 809.999993" height="1080" preserveAspectRatio="xMidYMid meet" version="1.0"><defs><filter x="0%" y="0%" width="100%" height="100%" id="id1"><feColorMatrix values="0 0 0 0 1 0 0 0 0 1 0 0 0 0 1 0 0 0 1 0" color-interpolation-filters="sRGB"/></filter><clipPath id="id2"><path d="M 64 0 L 741 0 L 741 793 L 64 793 Z M 64 0 " clip-rule="nonzero"/></clipPath><clipPath id="id3"><path d="M 643.101562 97.914062 C 614.199219 63.613281 578.988281 33.21875 536.882812 16.527344 C 506.902344 4.652344 474.261719 0 441.957031 0.414062 C 305.589844 2.410156 181.597656 97.5 124.792969 218.832031 C 74.964844 325.46875 40.5 509.585938 85.015625 618.460938 C 129.445312 727.339844 203.941406 785.058594 318.296875 790.039062 C 498.347656 810.886719 634.796875 686.8125 702.148438 543.386719 C 769.5 399.960938 745.582031 219.828125 643.101562 97.914062 " clip-rule="nonzero"/></clipPath><mask id="id4"><g filter="url(#id1)"><rect x="-81" width="972" fill="#000000" y="-80.999999" height="971.999992" fill-opacity="0.6392"/></g></mask><clipPath id="id5"><path d="M 0.664062 0.484375 L 144.664062 0.484375 L 144.664062 144.484375 L 0.664062 144.484375 Z M 0.664062 0.484375 " clip-rule="nonzero"/></clipPath><clipPath id="id6"><rect x="0" width="145" y="0" height="145"/></clipPath><mask id="id7"><g filter="url(#id1)"><rect x="-81" width="972" fill="#000000" y="-80.999999" height="971.999992" fill-opacity="0.6392"/></g></mask><clipPath id="id8"><path d="M 0.742188 0.414062 L 170.242188 0.414062 L 170.242188 169.914062 L 0.742188 169.914062 Z M 0.742188 0.414062 " clip-rule="nonzero"/></clipPath><clipPath id="id9"><rect x="0" width="171" y="0" height="170"/></clipPath></defs><g clip-path="url(#id2)"><g clip-path="url(#id3)"><path fill="#94dbff" d="M 40.5 0 L 769.667969 0 L 769.667969 810.554688 L 40.5 810.554688 Z M 40.5 0 " fill-opacity="1" fill-rule="nonzero"/></g></g><g mask="url(#id4)"><g transform="matrix(1, 0, 0, 1, 107, 52)"><g clip-path="url(#id6)"><g clip-path="url(#id5)"><path fill="#00a3ff" d="M 72.664062 0.484375 C 32.898438 0.484375 0.664062 32.71875 0.664062 72.484375 C 0.664062 112.246094 32.898438 144.484375 72.664062 144.484375 C 112.425781 144.484375 144.664062 112.246094 144.664062 72.484375 C 144.664062 32.71875 112.425781 0.484375 72.664062 0.484375 " fill-opacity="1" fill-rule="nonzero"/></g></g></g></g><g mask="url(#id7)"><g transform="matrix(1, 0, 0, 1, 522, 587)"><g clip-path="url(#id9)"><g clip-path="url(#id8)"><path fill="#ffd833" d="M 85.492188 0.414062 C 38.6875 0.414062 0.742188 38.359375 0.742188 85.164062 C 0.742188 131.972656 38.6875 169.914062 85.492188 169.914062 C 132.300781 169.914062 170.242188 131.972656 170.242188 85.164062 C 170.242188 38.359375 132.300781 0.414062 85.492188 0.414062 " fill-opacity="1" fill-rule="nonzero"/></g></g></g></g><path fill="#fddecc" d="M 270.28125 588.65625 L 281.878906 523.15625 L 333.492188 529.785156 C 333.492188 529.785156 336.554688 556.136719 323.617188 590.542969 C 318.578125 603.976562 311.078125 618.644531 300.015625 633.433594 L 262.347656 633.433594 Z M 462.402344 588.65625 L 450.804688 523.15625 L 399.191406 529.785156 C 399.191406 529.785156 396.132812 556.136719 409.066406 590.542969 C 414.105469 603.976562 421.605469 618.644531 432.667969 633.433594 L 470.335938 633.433594 Z M 463.015625 331.792969 C 485.335938 348.660156 536.253906 358.308594 536.253906 358.308594 L 537.648438 300.148438 L 501.617188 273.632812 Z M 463.015625 331.792969 " fill-opacity="1" fill-rule="nonzero"/><path fill="#0a72a8" d="M 470.335938 633.433594 L 432.667969 633.433594 C 421.605469 618.644531 414.105469 603.976562 409.066406 590.542969 L 410.390625 588.65625 L 462.402344 588.65625 Z M 262.347656 633.433594 L 300.015625 633.433594 C 311.078125 618.644531 318.578125 603.976562 323.617188 590.542969 L 322.292969 588.65625 L 270.28125 588.65625 Z M 262.347656 633.433594 " fill-opacity="1" fill-rule="nonzero"/><path fill="#000000" d="M 450.640625 521.800781 L 399.027344 528.429688 C 398.398438 528.511719 397.921875 529.003906 397.839844 529.632812 C 397.8125 529.90625 394.886719 556.710938 407.796875 591.03125 C 413.503906 606.246094 421.507812 620.789062 431.589844 634.265625 C 431.847656 634.609375 432.257812 634.8125 432.679688 634.8125 L 470.351562 634.8125 C 470.761719 634.8125 471.144531 634.636719 471.402344 634.320312 C 471.664062 634.007812 471.773438 633.597656 471.703125 633.203125 L 452.171875 522.921875 C 452.035156 522.199219 451.367188 521.71875 450.640625 521.800781 Z M 400.460938 531 L 449.6875 524.671875 L 460.777344 587.289062 L 410.390625 587.289062 C 410.050781 587.289062 409.707031 587.425781 409.460938 587.65625 C 399.175781 558.9375 400.09375 536.085938 400.460938 531 Z M 433.363281 632.066406 C 432.164062 630.441406 430.988281 628.800781 429.839844 627.144531 C 429.417969 626.542969 429.035156 625.929688 428.625 625.3125 C 427.914062 624.261719 427.191406 623.195312 426.507812 622.128906 C 426.042969 621.40625 425.605469 620.679688 425.15625 619.957031 C 424.554688 618.984375 423.941406 618.015625 423.351562 617.03125 C 422.886719 616.238281 422.4375 615.445312 421.988281 614.652344 C 421.453125 613.722656 420.90625 612.792969 420.390625 611.851562 C 419.9375 611.015625 419.5 610.167969 419.0625 609.335938 C 418.585938 608.417969 418.09375 607.519531 417.628906 606.601562 C 417.191406 605.742188 416.78125 604.851562 416.359375 603.992188 C 415.921875 603.089844 415.472656 602.1875 415.0625 601.285156 C 414.652344 600.394531 414.269531 599.496094 413.875 598.59375 C 413.476562 597.691406 413.066406 596.789062 412.683594 595.886719 C 412.304688 594.96875 411.949219 594.039062 411.578125 593.125 C 411.265625 592.332031 410.9375 591.539062 410.636719 590.734375 L 411.128906 590.035156 L 461.28125 590.035156 L 468.726562 632.082031 L 433.363281 632.082031 Z M 538.453125 299.054688 L 502.421875 272.539062 C 502.121094 272.320312 501.753906 272.222656 501.371094 272.292969 C 501 272.359375 500.671875 272.566406 500.46875 272.878906 L 461.882812 331.039062 C 461.488281 331.640625 461.625 332.449219 462.199219 332.886719 C 484.515625 349.753906 533.90625 359.265625 535.996094 359.664062 C 536.078125 359.675781 536.15625 359.691406 536.253906 359.691406 C 536.566406 359.691406 536.867188 359.582031 537.113281 359.390625 C 537.429688 359.144531 537.605469 358.761719 537.621094 358.363281 L 539.011719 300.203125 C 539.027344 299.738281 538.808594 299.316406 538.453125 299.054688 Z M 534.929688 356.65625 C 526.335938 354.890625 484.925781 345.84375 464.875 331.464844 L 501.957031 275.574219 L 536.265625 300.820312 Z M 333.65625 528.429688 L 282.042969 521.800781 C 281.316406 521.71875 280.648438 522.199219 280.527344 522.921875 L 260.992188 633.203125 C 260.925781 633.597656 261.035156 634.007812 261.292969 634.320312 C 261.554688 634.636719 261.9375 634.8125 262.347656 634.8125 L 300.015625 634.8125 C 300.441406 634.8125 300.847656 634.609375 301.109375 634.265625 C 303.621094 630.90625 306.011719 627.460938 308.28125 623.976562 C 315.054688 613.492188 320.628906 602.460938 324.902344 591.046875 C 337.808594 556.726562 334.886719 529.921875 334.859375 529.648438 C 334.777344 529.003906 334.285156 528.511719 333.65625 528.429688 Z M 263.972656 632.066406 L 271.429688 590.023438 L 321.582031 590.023438 L 322.074219 590.71875 C 321.746094 591.566406 321.40625 592.398438 321.078125 593.246094 C 320.722656 594.121094 320.394531 594.996094 320.027344 595.871094 C 319.628906 596.816406 319.207031 597.746094 318.796875 598.675781 C 318.414062 599.535156 318.046875 600.410156 317.648438 601.269531 C 317.210938 602.214844 316.761719 603.128906 316.296875 604.074219 C 315.886719 604.921875 315.492188 605.769531 315.066406 606.601562 C 314.589844 607.546875 314.085938 608.472656 313.59375 609.402344 C 313.15625 610.222656 312.746094 611.042969 312.296875 611.863281 C 311.761719 612.820312 311.214844 613.777344 310.65625 614.722656 C 310.21875 615.488281 309.78125 616.265625 309.332031 617.03125 C 308.71875 618.054688 308.089844 619.054688 307.445312 620.078125 C 307.023438 620.761719 306.613281 621.460938 306.175781 622.128906 C 305.410156 623.332031 304.605469 624.507812 303.800781 625.695312 C 303.472656 626.175781 303.171875 626.667969 302.828125 627.144531 C 301.683594 628.800781 300.507812 630.453125 299.292969 632.082031 L 263.972656 632.082031 Z M 323.222656 587.65625 C 322.976562 587.425781 322.648438 587.289062 322.292969 587.289062 L 271.90625 587.289062 L 282.996094 524.671875 L 332.222656 531 C 332.59375 536.085938 333.507812 558.9375 323.222656 587.65625 Z M 323.222656 587.65625 " fill-opacity="1" fill-rule="nonzero"/><path fill="#000000" d="M 471.5 633.433594 C 481.894531 637.574219 489.964844 641.71875 495.210938 644.683594 C 499.746094 647.238281 504.660156 649.042969 509.769531 650 C 534.355469 654.605469 542.425781 667.507812 546.511719 676.695312 C 548.96875 682.230469 544.816406 688.464844 538.765625 688.464844 L 433.351562 688.464844 C 429.074219 688.464844 425.414062 685.25 424.976562 681 C 422.082031 653.308594 432.164062 634.527344 432.164062 634.527344 Z M 261.183594 633.433594 C 250.792969 637.574219 242.71875 641.71875 237.472656 644.683594 C 232.941406 647.238281 228.023438 649.042969 222.914062 650 C 198.328125 654.605469 190.257812 667.507812 186.171875 676.695312 C 183.714844 682.230469 187.867188 688.464844 193.917969 688.464844 L 299.332031 688.464844 C 303.609375 688.464844 307.269531 685.25 307.707031 681 C 310.601562 653.308594 300.523438 634.527344 300.523438 634.527344 Z M 294.988281 391.128906 C 292.75 391.128906 290.757812 392.589844 290.128906 394.75 C 284.488281 413.816406 279.226562 435.332031 275.171875 459.0625 C 270.308594 487.492188 268.097656 513.628906 267.398438 536.644531 C 267.316406 539.515625 269.613281 541.894531 272.480469 541.894531 L 349.855469 541.894531 C 352.300781 541.894531 354.40625 540.144531 354.855469 537.726562 L 365.222656 480.933594 L 377.433594 537.875 C 377.9375 540.210938 380 541.894531 382.390625 541.894531 L 463.316406 541.894531 C 466.390625 541.894531 468.738281 539.1875 468.34375 536.140625 C 465.214844 512.070312 460.679688 485.90625 454.195312 458.132812 C 448.851562 435.304688 442.828125 414.105469 436.519531 394.628906 C 435.835938 392.535156 433.882812 391.128906 431.699219 391.128906 Z M 294.988281 391.128906 " fill-opacity="1" fill-rule="nonzero"/><path fill="#fddecc" d="M 243.320312 344.65625 C 234.183594 370.40625 245.847656 380.78125 252.746094 384.484375 C 254.984375 385.6875 257.539062 386.140625 260.078125 385.976562 C 286.34375 384.363281 302.078125 418.535156 297.367188 425.09375 C 294.375 429.265625 288.558594 423.78125 288.558594 423.78125 C 288.558594 423.78125 298.023438 432.789062 292.136719 436.441406 C 288.476562 438.710938 282.726562 434.171875 282.726562 434.171875 C 282.726562 434.171875 291.355469 441.675781 287.339844 445.695312 C 284.0625 448.972656 278.09375 445.695312 278.09375 445.695312 C 278.09375 445.695312 281.015625 447.332031 282.015625 451.542969 C 283.148438 456.328125 275.15625 459.074219 257.25 453.035156 C 239.34375 446.992188 233.539062 418.835938 233.539062 418.835938 C 202.332031 405.21875 175.125 382.367188 180.191406 346.59375 C 185.257812 310.824219 212.617188 288.558594 212.617188 288.558594 " fill-opacity="1" fill-rule="nonzero"/><path fill="#000000" d="M 298.488281 425.886719 C 297.597656 427.132812 296.371094 427.871094 294.949219 428.007812 C 294.539062 428.046875 294.128906 428.035156 293.707031 427.980469 C 294.785156 429.785156 295.605469 431.820312 295.414062 433.707031 C 295.25 435.320312 294.363281 436.671875 292.871094 437.589844 C 291.382812 438.503906 289.691406 438.570312 288.078125 438.230469 C 289.007812 439.691406 289.71875 441.320312 289.785156 442.90625 C 289.839844 444.339844 289.335938 445.640625 288.324219 446.636719 C 286.589844 448.371094 284.335938 448.660156 282.34375 448.425781 C 282.753906 449.21875 283.121094 450.136719 283.367188 451.203125 C 283.777344 452.925781 283.296875 454.523438 282.015625 455.699219 C 280.445312 457.132812 277.808594 457.84375 274.3125 457.84375 C 269.789062 457.84375 263.835938 456.65625 256.84375 454.292969 C 239.796875 448.535156 233.429688 424.316406 232.378906 419.765625 C 204.777344 407.597656 173.386719 385.03125 178.851562 346.363281 C 183.917969 310.484375 211.496094 287.683594 211.769531 287.449219 C 212.355469 286.972656 213.214844 287.066406 213.695312 287.65625 C 214.171875 288.242188 214.078125 289.105469 213.503906 289.582031 C 213.230469 289.800781 186.488281 311.957031 181.554688 346.757812 C 176.285156 384.035156 207.21875 405.835938 234.101562 417.550781 C 234.511719 417.726562 234.796875 418.097656 234.894531 418.519531 C 234.949219 418.792969 240.765625 445.980469 257.703125 451.707031 C 270.964844 456.191406 278.082031 455.5625 280.15625 453.675781 C 280.703125 453.171875 280.878906 452.597656 280.691406 451.832031 C 279.871094 448.398438 277.644531 446.992188 277.4375 446.871094 C 276.605469 446.472656 267.660156 442.152344 254.917969 432.324219 C 254.316406 431.859375 254.207031 431.011719 254.671875 430.410156 C 255.132812 429.8125 255.996094 429.703125 256.582031 430.164062 C 269.449219 440.074219 278.585938 444.394531 278.667969 444.4375 C 278.683594 444.4375 278.695312 444.449219 278.710938 444.464844 C 278.722656 444.476562 278.738281 444.464844 278.75 444.476562 C 278.804688 444.503906 283.859375 447.222656 286.371094 444.710938 C 286.847656 444.230469 287.054688 443.699219 287.027344 443 C 286.929688 440.226562 283.230469 436.425781 281.808594 435.183594 C 281.796875 435.167969 281.796875 435.15625 281.78125 435.15625 C 281.769531 435.140625 281.753906 435.140625 281.742188 435.128906 C 281.660156 435.058594 274.050781 427.582031 265.882812 422.019531 C 265.253906 421.597656 265.105469 420.75 265.527344 420.121094 C 265.953125 419.492188 266.800781 419.328125 267.425781 419.765625 C 275.566406 425.3125 282.902344 432.449219 283.597656 433.117188 C 285.03125 434.226562 289.101562 436.6875 291.398438 435.265625 C 292.175781 434.773438 292.585938 434.199219 292.667969 433.417969 C 292.914062 431.09375 290.414062 427.789062 288.667969 425.859375 C 288.652344 425.847656 288.652344 425.847656 288.640625 425.847656 C 288.625 425.832031 288.324219 425.519531 287.820312 424.984375 C 287.738281 424.902344 287.667969 424.835938 287.601562 424.765625 C 287.585938 424.753906 287.574219 424.726562 287.558594 424.710938 C 285.320312 422.375 279.898438 416.867188 274.992188 413.011719 C 274.40625 412.546875 274.296875 411.6875 274.761719 411.097656 C 275.226562 410.511719 276.085938 410.402344 276.675781 410.867188 C 281.824219 414.910156 287.355469 420.558594 289.59375 422.894531 C 290.496094 423.714844 292.859375 425.464844 294.648438 425.273438 C 295.289062 425.203125 295.796875 424.902344 296.234375 424.289062 C 297.625 422.347656 296.589844 415.867188 292.464844 408.390625 C 286.507812 397.621094 274.882812 386.414062 260.132812 387.328125 C 257.210938 387.507812 254.425781 386.933594 252.074219 385.675781 C 245.820312 382.3125 232.3125 371.539062 242.007812 344.191406 C 242.253906 343.480469 243.03125 343.109375 243.757812 343.355469 C 244.46875 343.601562 244.835938 344.394531 244.589844 345.105469 C 235.917969 369.546875 246.378906 379.507812 253.386719 383.269531 C 255.285156 384.292969 257.578125 384.757812 259.984375 384.609375 C 276.03125 383.609375 288.515625 395.570312 294.867188 407.078125 C 298.582031 413.777344 301.136719 422.195312 298.488281 425.886719 Z M 298.488281 425.886719 " fill-opacity="1" fill-rule="nonzero"/><path fill="#0a72a8" d="M 510.167969 275.121094 C 509.785156 304.46875 486.824219 330.601562 477.167969 340.308594 C 474.722656 342.769531 471.035156 343.4375 467.878906 342.03125 L 450.804688 334.347656 L 448.199219 367.808594 C 446.898438 384.335938 433.296875 397.195312 416.726562 397.523438 C 384.792969 398.167969 325.613281 398.617188 303.144531 396.8125 C 275.621094 394.601562 273.300781 340.28125 273.300781 340.28125 L 250.886719 349 C 249.070312 349.710938 247.046875 349.738281 245.191406 349.125 C 209.324219 337.246094 203.339844 305.4375 202.359375 294.980469 C 202.152344 292.878906 202.769531 290.773438 204.09375 289.117188 C 253.796875 226.816406 349.761719 209.226562 360.292969 207.460938 C 360.90625 207.351562 361.535156 207.324219 362.164062 207.367188 C 438.050781 211.972656 494.539062 257.652344 507.339844 268.875 C 509.15625 270.460938 510.207031 272.730469 510.167969 275.121094 Z M 510.167969 275.121094 " fill-opacity="1" fill-rule="nonzero"/><path fill="#fddecc" d="M 397.085938 163.1875 C 395.394531 167.507812 392.335938 170.773438 388.808594 172.511719 C 388.90625 181.792969 386.433594 190.921875 378.28125 196.5 L 383.550781 219.1875 L 362.585938 242.222656 L 332.25 219.53125 L 324.589844 191.238281 C 319.945312 191.59375 314.835938 189.527344 311.09375 185.304688 C 305.273438 178.742188 305 169.488281 310.480469 164.625 C 312.226562 163.066406 314.359375 162.164062 316.640625 161.847656 L 314.632812 154.453125 C 314.632812 154.453125 313.757812 132.296875 332.933594 126.007812 C 352.109375 119.722656 371.300781 119.378906 381.050781 140.664062 C 381.050781 140.664062 381.542969 141.714844 382.28125 143.519531 C 384.972656 142.574219 387.839844 142.523438 390.515625 143.558594 C 397.332031 146.238281 400.269531 155.027344 397.085938 163.1875 Z M 397.085938 163.1875 " fill-opacity="1" fill-rule="nonzero"/><path fill="#000000" d="M 382.214844 219.503906 C 382.390625 220.242188 383.113281 220.691406 383.851562 220.527344 C 384.589844 220.363281 385.039062 219.625 384.875 218.886719 L 379.808594 197.101562 C 380.207031 196.800781 380.585938 196.5 380.96875 196.183594 C 381.023438 196.144531 381.078125 196.089844 381.132812 196.046875 C 381.625 195.625 382.105469 195.171875 382.554688 194.722656 C 382.730469 194.542969 382.894531 194.367188 383.074219 194.1875 C 383.414062 193.832031 383.730469 193.464844 384.042969 193.082031 C 384.34375 192.726562 384.617188 192.34375 384.890625 191.976562 C 385.039062 191.769531 385.191406 191.550781 385.339844 191.332031 C 385.585938 190.964844 385.832031 190.582031 386.066406 190.210938 C 386.078125 190.183594 386.09375 190.171875 386.105469 190.144531 C 389.082031 185.152344 390.21875 179.277344 390.246094 173.304688 C 393.824219 171.265625 396.746094 167.824219 398.359375 163.695312 C 401.8125 154.835938 398.519531 145.242188 391.023438 142.304688 C 388.523438 141.320312 385.804688 141.183594 383.085938 141.867188 C 382.746094 141.058594 382.5 140.5 382.363281 140.238281 C 382.324219 140.15625 382.296875 140.101562 382.296875 140.101562 C 382.296875 140.101562 382.296875 140.101562 382.296875 140.089844 C 381.980469 139.417969 381.667969 138.761719 381.339844 138.132812 C 382.472656 137.175781 383.402344 136.054688 384.015625 134.742188 C 391.023438 119.886719 345.457031 94.734375 326.855469 120.144531 C 325.515625 121.964844 323.6875 123.371094 321.652344 124.355469 C 313.359375 128.359375 294.144531 140.621094 311.953125 161.957031 C 311.09375 162.421875 310.289062 162.96875 309.5625 163.613281 C 303.527344 168.96875 303.757812 179.097656 310.054688 186.21875 C 313.675781 190.308594 318.648438 192.660156 323.535156 192.660156 L 330.910156 219.914062 C 331.074219 220.527344 331.621094 220.925781 332.222656 220.925781 C 332.347656 220.925781 332.457031 220.910156 332.578125 220.871094 C 333.300781 220.679688 333.738281 219.925781 333.535156 219.1875 L 325.871094 190.894531 C 325.695312 190.265625 325.105469 189.84375 324.453125 189.882812 C 320.039062 190.210938 315.410156 188.175781 312.078125 184.402344 C 306.777344 178.414062 306.449219 170.007812 311.351562 165.648438 C 312.078125 165.007812 312.910156 164.472656 313.796875 164.0625 C 314.441406 164.761719 315.121094 165.472656 315.847656 166.183594 C 316.160156 166.496094 316.433594 166.851562 316.640625 167.25 C 317.363281 168.667969 319.21875 172.347656 320.53125 174.929688 C 321.351562 176.554688 323.140625 177.457031 324.941406 177.15625 C 327.292969 176.761719 328.835938 174.492188 328.34375 172.167969 L 325.378906 158.171875 C 325.105469 156.902344 325.40625 155.5625 326.242188 154.578125 C 327.824219 152.703125 330.351562 148.398438 331.15625 139.445312 C 331.15625 139.445312 365.03125 147.347656 379.003906 139.691406 C 379.261719 140.210938 379.550781 140.703125 379.796875 141.25 C 379.960938 141.605469 394.683594 173.535156 382.636719 190.320312 C 381.871094 191.320312 380.628906 192.78125 378.851562 194.324219 C 378.402344 194.695312 377.953125 195.050781 377.472656 195.390625 C 377.351562 195.472656 377.242188 195.597656 377.144531 195.707031 C 371.300781 200.082031 361.246094 204.25 346.003906 200 C 345.28125 199.792969 344.53125 200.21875 344.324219 200.957031 C 344.121094 201.679688 344.542969 202.429688 345.28125 202.636719 C 349.9375 203.933594 354.171875 204.480469 357.984375 204.480469 C 366.453125 204.480469 372.855469 201.789062 377.378906 198.769531 Z M 384.140625 144.433594 C 386.175781 143.996094 388.183594 144.121094 390.027344 144.84375 C 396.132812 147.238281 398.726562 155.234375 395.816406 162.695312 C 394.628906 165.730469 392.621094 168.328125 390.164062 170.089844 C 389.589844 159.894531 386.285156 149.945312 384.140625 144.433594 Z M 351.222656 162.464844 C 351.863281 164.707031 350.566406 167.03125 348.328125 167.671875 C 346.085938 168.3125 343.765625 167.015625 343.121094 164.773438 C 342.480469 162.53125 343.777344 160.207031 346.019531 159.566406 C 348.257812 158.9375 350.59375 160.234375 351.222656 162.464844 Z M 373.144531 156.230469 C 373.785156 158.472656 372.488281 160.796875 370.25 161.4375 C 368.007812 162.082031 365.6875 160.78125 365.042969 158.542969 C 364.402344 156.300781 365.699219 153.976562 367.941406 153.332031 C 370.179688 152.691406 372.503906 154.003906 373.144531 156.230469 Z M 363.445312 170.417969 C 364.007812 169.132812 363.964844 167.671875 363.324219 166.429688 L 361.300781 162.503906 C 360.960938 161.835938 361.21875 161.015625 361.890625 160.660156 C 362.558594 160.316406 363.378906 160.578125 363.734375 161.246094 L 365.753906 165.171875 C 366.777344 167.152344 366.847656 169.476562 365.945312 171.511719 C 365.042969 173.550781 363.296875 175.066406 361.136719 175.667969 L 357.640625 176.625 C 357.519531 176.652344 357.394531 176.679688 357.285156 176.679688 C 356.683594 176.679688 356.140625 176.285156 355.976562 175.667969 C 355.769531 174.945312 356.207031 174.191406 356.929688 173.988281 L 360.429688 173.03125 C 361.78125 172.660156 362.871094 171.703125 363.445312 170.417969 Z M 349.664062 179.496094 C 358.597656 184.71875 367.722656 179.550781 367.816406 179.496094 C 368.472656 179.113281 369.304688 179.34375 369.6875 179.988281 C 370.070312 180.644531 369.851562 181.476562 369.195312 181.859375 C 368.910156 182.023438 364.402344 184.609375 358.394531 184.609375 C 355.292969 184.609375 351.796875 183.925781 348.285156 181.859375 C 347.628906 181.476562 347.410156 180.644531 347.792969 179.988281 C 348.175781 179.332031 349.023438 179.113281 349.664062 179.496094 Z M 371.957031 147.074219 C 371.847656 147.824219 371.148438 148.332031 370.398438 148.222656 C 370.316406 148.207031 365.851562 147.59375 364.59375 150.164062 C 364.363281 150.640625 363.871094 150.929688 363.363281 150.929688 C 363.160156 150.929688 362.953125 150.886719 362.761719 150.792969 C 362.082031 150.464844 361.808594 149.644531 362.136719 148.960938 C 364.28125 144.585938 370.550781 145.472656 370.808594 145.515625 C 371.558594 145.625 372.066406 146.320312 371.957031 147.074219 Z M 348.410156 151.488281 C 349.023438 151.925781 349.171875 152.773438 348.75 153.386719 C 348.3125 154.003906 347.464844 154.152344 346.851562 153.730469 C 344.488281 152.089844 340.867188 154.824219 340.828125 154.851562 C 340.582031 155.042969 340.28125 155.136719 339.996094 155.136719 C 339.585938 155.136719 339.175781 154.960938 338.914062 154.605469 C 338.464844 154.003906 338.574219 153.15625 339.160156 152.691406 C 339.378906 152.511719 344.421875 148.699219 348.410156 151.488281 Z M 403.65625 234.566406 C 404.640625 236.546875 404.558594 238.871094 403.453125 240.800781 C 402.347656 242.714844 400.367188 243.945312 398.152344 244.066406 L 371.820312 245.679688 C 371.792969 245.679688 371.765625 245.679688 371.738281 245.679688 C 371.027344 245.679688 370.425781 245.117188 370.371094 244.394531 C 370.332031 243.644531 370.902344 242.988281 371.65625 242.945312 L 397.988281 241.332031 C 399.300781 241.25 400.433594 240.554688 401.089844 239.417969 C 401.746094 238.285156 401.800781 236.957031 401.210938 235.769531 L 392.484375 218.042969 C 392.15625 217.359375 392.429688 216.550781 393.113281 216.210938 C 393.796875 215.867188 394.601562 216.15625 394.941406 216.839844 Z M 355.429688 244.09375 C 355.550781 244.832031 355.046875 245.542969 354.296875 245.664062 L 328.058594 249.917969 C 327.703125 249.972656 327.347656 250 327.003906 250 C 325.449219 250 323.945312 249.453125 322.742188 248.425781 C 321.269531 247.167969 320.421875 245.335938 320.421875 243.398438 L 320.421875 222.675781 C 320.421875 221.921875 321.035156 221.308594 321.789062 221.308594 C 322.539062 221.308594 323.152344 221.921875 323.152344 222.675781 L 323.152344 243.398438 C 323.152344 244.53125 323.644531 245.597656 324.507812 246.335938 C 325.367188 247.074219 326.5 247.386719 327.621094 247.210938 L 353.859375 242.960938 C 354.609375 242.851562 355.304688 243.355469 355.429688 244.09375 Z M 366.574219 248.578125 L 373.28125 398.085938 C 373.308594 398.835938 372.734375 399.480469 371.984375 399.507812 C 371.957031 399.507812 371.941406 399.507812 371.914062 399.507812 C 371.191406 399.507812 370.589844 398.933594 370.550781 398.195312 L 363.84375 248.6875 C 363.816406 247.933594 364.390625 247.292969 365.140625 247.265625 C 365.890625 247.25 366.535156 247.824219 366.574219 248.578125 Z M 457.402344 278.988281 L 448.484375 374.054688 C 448.414062 374.765625 447.828125 375.300781 447.117188 375.300781 C 447.078125 375.300781 447.035156 375.300781 446.996094 375.300781 C 446.246094 375.230469 445.699219 374.5625 445.765625 373.808594 L 454.683594 278.742188 C 454.753906 277.992188 455.410156 277.433594 456.175781 277.515625 C 456.925781 277.582031 457.472656 278.238281 457.402344 278.988281 Z M 296.546875 330.710938 C 296.832031 331.410156 296.492188 332.203125 295.78125 332.488281 L 248.703125 351.324219 C 248.539062 351.394531 248.359375 351.421875 248.195312 351.421875 C 248.101562 351.421875 248.003906 351.40625 247.910156 351.394531 C 230.46875 347.730469 217.082031 332.75 216.523438 332.121094 C 216.015625 331.558594 216.070312 330.683594 216.644531 330.191406 C 217.21875 329.6875 218.078125 329.742188 218.570312 330.316406 C 218.707031 330.464844 231.710938 345.023438 248.074219 348.644531 L 294.757812 329.960938 C 295.46875 329.671875 296.261719 330 296.546875 330.710938 Z M 341.578125 288.53125 C 341.578125 293.738281 334.011719 297.960938 324.683594 297.960938 C 315.355469 297.960938 307.789062 293.738281 307.789062 288.53125 C 307.789062 283.324219 315.355469 279.097656 324.683594 279.097656 C 334.011719 279.097656 341.578125 283.324219 341.578125 288.53125 Z M 341.578125 288.53125 " fill-opacity="1" fill-rule="nonzero"/><path fill="#0a72a8" d="M 565.402344 477.253906 L 565.402344 217.097656 C 566.464844 216.769531 567.546875 216.429688 568.609375 216.046875 C 613.054688 200.273438 636.070312 150.75 620.019531 105.425781 C 613.941406 88.285156 603.152344 74.207031 589.671875 64.160156 C 584.933594 60.617188 578.199219 63.925781 578.199219 69.84375 L 578.199219 121.171875 C 578.199219 138.816406 564.539062 153.277344 547.234375 154.535156 C 527.527344 155.972656 511.339844 140.007812 511.339844 120.226562 L 511.339844 62.75 C 511.339844 56.257812 506.519531 53.167969 500.714844 56.082031 C 462.742188 75.1875 444.222656 120.664062 459.070312 162.546875 C 468.929688 190.390625 491.234375 210.140625 517.28125 217.605469 L 517.28125 476.203125 C 517.28125 492.535156 511.765625 508.335938 501.863281 521.308594 C 489.679688 537.273438 482.015625 559.171875 482.015625 579.210938 C 482.015625 616.511719 508.582031 646.761719 541.347656 646.761719 C 574.113281 646.761719 600.679688 616.511719 600.679688 579.210938 C 600.679688 558.816406 592.730469 536.507812 580.179688 520.476562 C 570.523438 508.160156 565.402344 492.90625 565.402344 477.253906 Z M 541.335938 610.523438 C 523.550781 610.523438 509.140625 596.105469 509.140625 578.308594 C 509.140625 560.511719 523.550781 546.089844 541.335938 546.089844 C 559.117188 546.089844 573.527344 560.511719 573.527344 578.308594 C 573.527344 596.089844 559.117188 610.523438 541.335938 610.523438 Z M 541.335938 610.523438 " fill-opacity="1" fill-rule="nonzero"/><path fill="#fddecc" d="M 564.621094 271.128906 C 562.464844 267.167969 550.59375 266.304688 545.007812 262.695312 C 539.410156 259.074219 538.726562 249.261719 553.792969 251.324219 C 568.855469 253.386719 571.179688 263.898438 571.179688 263.898438 C 573.828125 272.25 566.765625 275.09375 564.621094 271.128906 Z M 564.621094 271.128906 " fill-opacity="1" fill-rule="nonzero"/><path fill="#000000" d="M 567.464844 274.273438 C 565.8125 274.273438 564.28125 273.386719 563.421875 271.785156 C 562.476562 270.050781 558.082031 268.78125 554.199219 267.660156 C 550.59375 266.621094 546.878906 265.539062 544.269531 263.84375 C 540.871094 261.644531 539.191406 257.613281 540.363281 254.453125 C 541.199219 252.199219 544.082031 248.617188 553.984375 249.984375 C 569.335938 252.089844 572.242188 262.503906 572.503906 263.542969 C 574.238281 269.039062 572.214844 272.6875 569.445312 273.863281 C 568.773438 274.136719 568.105469 274.273438 567.464844 274.273438 Z M 550.007812 252.417969 C 546.195312 252.417969 543.628906 253.457031 542.917969 255.398438 C 542.195312 257.351562 543.4375 260.058594 545.746094 261.546875 C 548.015625 263.011719 551.550781 264.035156 554.953125 265.035156 C 559.992188 266.496094 564.335938 267.753906 565.824219 270.488281 C 566.453125 271.648438 567.585938 271.675781 568.351562 271.347656 C 569.992188 270.652344 571.097656 268.207031 569.867188 264.324219 C 569.855469 264.28125 569.839844 264.242188 569.839844 264.214844 C 569.746094 263.816406 567.449219 254.589844 553.601562 252.691406 C 552.300781 252.5 551.101562 252.417969 550.007812 252.417969 Z M 550.007812 252.417969 " fill-opacity="1" fill-rule="nonzero"/><path fill="#fddecc" d="M 564.621094 282.066406 C 562.464844 278.101562 550.59375 277.242188 545.007812 273.632812 C 539.421875 270.023438 538.726562 260.195312 553.792969 262.257812 C 568.855469 264.324219 571.179688 274.835938 571.179688 274.835938 C 573.828125 283.1875 566.765625 286.03125 564.621094 282.066406 Z M 564.621094 282.066406 " fill-opacity="1" fill-rule="nonzero"/><path fill="#000000" d="M 567.464844 285.195312 C 565.8125 285.195312 564.28125 284.308594 563.421875 282.707031 C 562.476562 280.972656 558.082031 279.699219 554.199219 278.578125 C 550.59375 277.542969 546.878906 276.460938 544.269531 274.765625 C 540.871094 272.566406 539.191406 268.535156 540.363281 265.375 C 541.199219 263.121094 544.082031 259.554688 553.984375 260.90625 C 569.335938 263.011719 572.242188 273.425781 572.503906 274.464844 C 574.238281 279.960938 572.214844 283.609375 569.445312 284.785156 C 568.773438 285.074219 568.105469 285.195312 567.464844 285.195312 Z M 550.007812 263.339844 C 546.195312 263.339844 543.628906 264.378906 542.917969 266.320312 C 542.195312 268.273438 543.4375 270.980469 545.746094 272.46875 C 548.015625 273.933594 551.550781 274.957031 554.953125 275.957031 C 559.992188 277.417969 564.335938 278.675781 565.824219 281.410156 C 566.453125 282.570312 567.585938 282.597656 568.351562 282.269531 C 569.992188 281.574219 571.097656 279.125 569.867188 275.246094 C 569.855469 275.203125 569.839844 275.164062 569.839844 275.136719 C 569.746094 274.738281 567.449219 265.511719 553.601562 263.613281 C 552.300781 263.433594 551.101562 263.339844 550.007812 263.339844 Z M 550.007812 263.339844 " fill-opacity="1" fill-rule="nonzero"/><path fill="#fddecc" d="M 564.621094 292.988281 C 562.464844 289.023438 550.59375 288.160156 545.007812 284.554688 C 539.421875 280.945312 538.726562 271.117188 553.792969 273.179688 C 568.855469 275.246094 571.179688 285.757812 571.179688 285.757812 C 573.828125 294.109375 566.765625 296.949219 564.621094 292.988281 Z M 564.621094 292.988281 " fill-opacity="1" fill-rule="nonzero"/><path fill="#000000" d="M 567.464844 296.128906 C 565.8125 296.128906 564.28125 295.242188 563.421875 293.644531 C 562.476562 291.90625 558.082031 290.636719 554.199219 289.515625 C 550.59375 288.476562 546.878906 287.394531 544.269531 285.703125 C 540.871094 283.5 539.191406 279.46875 540.363281 276.3125 C 541.199219 274.054688 544.066406 270.472656 553.984375 271.839844 C 569.335938 273.945312 572.242188 284.363281 572.503906 285.402344 C 574.238281 290.894531 572.214844 294.546875 569.445312 295.71875 C 568.773438 295.992188 568.105469 296.128906 567.464844 296.128906 Z M 550.007812 274.273438 C 546.195312 274.273438 543.628906 275.3125 542.90625 277.253906 C 542.179688 279.207031 543.425781 281.914062 545.734375 283.40625 C 548 284.867188 551.539062 285.894531 554.9375 286.890625 C 559.980469 288.351562 564.320312 289.609375 565.8125 292.34375 C 566.4375 293.507812 567.574219 293.535156 568.335938 293.207031 C 569.976562 292.507812 571.082031 290.0625 569.855469 286.179688 C 569.839844 286.140625 569.828125 286.097656 569.828125 286.070312 C 569.730469 285.675781 567.4375 276.449219 553.585938 274.546875 C 552.300781 274.355469 551.101562 274.273438 550.007812 274.273438 Z M 550.007812 274.273438 " fill-opacity="1" fill-rule="nonzero"/><path fill="#fddecc" d="M 564.621094 304.917969 C 562.464844 300.957031 550.59375 300.09375 545.007812 296.484375 C 539.421875 292.878906 538.726562 283.050781 553.792969 285.113281 C 568.855469 287.175781 571.179688 297.6875 571.179688 297.6875 C 573.828125 306.039062 566.765625 308.882812 564.621094 304.917969 Z M 564.621094 304.917969 " fill-opacity="1" fill-rule="nonzero"/><path fill="#000000" d="M 567.464844 308.0625 C 565.8125 308.0625 564.28125 307.175781 563.421875 305.574219 C 562.476562 303.839844 558.082031 302.570312 554.199219 301.449219 C 550.59375 300.410156 546.867188 299.328125 544.269531 297.632812 C 540.871094 295.433594 539.191406 291.402344 540.363281 288.242188 C 541.199219 285.988281 544.066406 282.40625 553.984375 283.773438 C 569.335938 285.878906 572.242188 296.292969 572.503906 297.332031 C 574.238281 302.828125 572.214844 306.476562 569.445312 307.652344 C 568.773438 307.925781 568.105469 308.0625 567.464844 308.0625 Z M 550.007812 286.207031 C 546.195312 286.207031 543.628906 287.246094 542.90625 289.1875 C 542.179688 291.140625 543.425781 293.847656 545.734375 295.335938 C 548 296.800781 551.539062 297.824219 554.953125 298.824219 C 559.980469 300.285156 564.335938 301.542969 565.824219 304.277344 C 566.453125 305.4375 567.585938 305.480469 568.351562 305.136719 C 569.992188 304.441406 571.097656 301.996094 569.867188 298.113281 C 569.855469 298.070312 569.839844 298.03125 569.839844 298.003906 C 569.746094 297.605469 567.449219 288.378906 553.601562 286.480469 C 552.300781 286.304688 551.101562 286.207031 550.007812 286.207031 Z M 550.007812 286.207031 " fill-opacity="1" fill-rule="nonzero"/></svg>