<svg xmlns="http://www.w3.org/2000/svg" xmlns:xlink="http://www.w3.org/1999/xlink" width="1080" zoomAndPan="magnify" viewBox="0 0 810 809.999993" height="1080" preserveAspectRatio="xMidYMid meet" version="1.0"><defs><filter x="0%" y="0%" width="100%" height="100%" id="id1"><feColorMatrix values="0 0 0 0 1 0 0 0 0 1 0 0 0 0 1 0 0 0 1 0" color-interpolation-filters="sRGB"/></filter><mask id="id2"><g filter="url(#id1)"><rect x="-81" width="972" fill="#000000" y="-80.999999" height="971.999992" fill-opacity="0.6471"/></g></mask><clipPath id="id3"><path d="M 2 47.839844 L 803 47.839844 L 803 755 L 2 755 Z M 2 47.839844 " clip-rule="nonzero"/></clipPath><clipPath id="id4"><rect x="0" width="804" y="0" height="802"/></clipPath><mask id="id5"><g filter="url(#id1)"><rect x="-81" width="972" fill="#000000" y="-80.999999" height="971.999992" fill-opacity="0.6471"/></g></mask><clipPath id="id6"><path d="M 14 37 L 784 37 L 784 753 L 14 753 Z M 14 37 " clip-rule="nonzero"/></clipPath><clipPath id="id7"><path d="M 849.984375 673.886719 L 60.699219 838.410156 L -83.925781 144.570312 L 705.359375 -19.949219 Z M 849.984375 673.886719 " clip-rule="nonzero"/></clipPath><clipPath id="id8"><path d="M 961.1875 686.289062 L -38.085938 894.578125 L -190.207031 164.765625 L 809.0625 -43.527344 Z M 961.1875 686.289062 " clip-rule="nonzero"/></clipPath><clipPath id="id9"><rect x="0" width="810" y="0" height="810"/></clipPath><clipPath id="id10"><path d="M 271.011719 320 L 651 320 L 651 605 L 271.011719 605 Z M 271.011719 320 " clip-rule="nonzero"/></clipPath><clipPath id="id11"><path d="M 271.011719 225.476562 L 651 225.476562 L 651 321 L 271.011719 321 Z M 271.011719 225.476562 " clip-rule="nonzero"/></clipPath></defs><g mask="url(#id2)"><g transform="matrix(1, 0, 0, 1, 3, 7)"><g clip-path="url(#id4)"><g clip-path="url(#id3)"><path fill="#94dbff" d="M 756.691406 234.488281 C 756.691406 234.488281 911.726562 486.394531 649.617188 713.535156 C 559.765625 791.402344 318.140625 738.863281 228.015625 713.535156 C 228.015625 713.535156 -108.878906 609.90625 40.636719 442.046875 C 190.152344 274.1875 374.453125 48.199219 489.007812 47.019531 C 603.5625 45.84375 707.417969 121.546875 756.691406 234.488281 Z M 756.691406 234.488281 " fill-opacity="1" fill-rule="evenodd"/></g></g></g></g><g mask="url(#id5)"><g transform="matrix(1, 0, 0, 1, 0, 0.000000000000039746)"><g clip-path="url(#id9)"><g clip-path="url(#id6)"><g clip-path="url(#id7)"><g clip-path="url(#id8)"><path fill="#4568ab" d="M 695.628906 172.742188 C 695.628906 172.742188 898.804688 387.710938 688.5625 663.554688 C 616.484375 758.121094 369.222656 755.992188 275.828125 749.585938 C 275.828125 749.585938 -75.121094 716.882812 36.992188 522.046875 C 149.109375 327.207031 283.417969 68.367188 395.324219 43.839844 C 507.226562 19.308594 624.34375 72.226562 695.628906 172.742188 Z M 695.628906 172.742188 " fill-opacity="1" fill-rule="evenodd"/></g></g></g></g></g></g><g clip-path="url(#id10)"><path fill="#f3f3f3" d="M 650.203125 320.0625 L 650.203125 581.019531 C 650.203125 593.6875 639.222656 604.667969 626.554688 604.667969 L 294.65625 604.667969 C 281.144531 604.667969 271.011719 593.6875 271.011719 581.019531 L 271.011719 320.0625 Z M 650.203125 320.0625 " fill-opacity="1" fill-rule="nonzero"/></g><path fill="#ced6e0" d="M 302.257812 351.308594 L 618.109375 351.308594 L 618.109375 373.265625 L 302.257812 373.265625 Z M 302.257812 351.308594 " fill-opacity="1" fill-rule="nonzero"/><path fill="#ced6e0" d="M 302.257812 403.667969 L 618.109375 403.667969 L 618.109375 425.628906 L 302.257812 425.628906 Z M 302.257812 403.667969 " fill-opacity="1" fill-rule="nonzero"/><path fill="#ced6e0" d="M 302.257812 456.03125 L 618.109375 456.03125 L 618.109375 477.988281 L 302.257812 477.988281 Z M 302.257812 456.03125 " fill-opacity="1" fill-rule="nonzero"/><path fill="#ced6e0" d="M 302.257812 508.390625 L 402.757812 508.390625 L 402.757812 530.347656 L 302.257812 530.347656 Z M 302.257812 508.390625 " fill-opacity="1" fill-rule="nonzero"/><g clip-path="url(#id11)"><path fill="#55c0eb" d="M 650.203125 320.0625 L 650.203125 249.121094 C 650.203125 235.609375 639.222656 225.476562 626.554688 225.476562 L 294.65625 225.476562 C 281.988281 225.476562 271.011719 236.453125 271.011719 249.121094 L 271.011719 320.0625 Z M 650.203125 320.0625 " fill-opacity="1" fill-rule="nonzero"/></g><path fill="#415a6b" d="M 337.730469 272.769531 C 337.730469 273.320312 337.703125 273.875 337.648438 274.425781 C 337.59375 274.972656 337.511719 275.519531 337.402344 276.0625 C 337.296875 276.605469 337.160156 277.140625 337 277.671875 C 336.839844 278.199219 336.65625 278.722656 336.441406 279.230469 C 336.230469 279.742188 335.996094 280.242188 335.734375 280.730469 C 335.472656 281.21875 335.191406 281.691406 334.882812 282.152344 C 334.574219 282.613281 334.246094 283.054688 333.894531 283.484375 C 333.542969 283.910156 333.171875 284.320312 332.78125 284.710938 C 332.390625 285.101562 331.980469 285.472656 331.554688 285.824219 C 331.125 286.175781 330.683594 286.503906 330.222656 286.8125 C 329.761719 287.121094 329.289062 287.402344 328.800781 287.664062 C 328.3125 287.925781 327.8125 288.160156 327.300781 288.375 C 326.789062 288.585938 326.269531 288.769531 325.742188 288.929688 C 325.210938 289.09375 324.675781 289.226562 324.132812 289.335938 C 323.589844 289.441406 323.042969 289.523438 322.492188 289.578125 C 321.941406 289.632812 321.390625 289.660156 320.839844 289.660156 C 320.285156 289.660156 319.734375 289.632812 319.183594 289.578125 C 318.632812 289.523438 318.085938 289.441406 317.542969 289.335938 C 317 289.226562 316.464844 289.09375 315.933594 288.929688 C 315.40625 288.769531 314.886719 288.585938 314.375 288.375 C 313.863281 288.160156 313.363281 287.925781 312.875 287.664062 C 312.386719 287.402344 311.914062 287.121094 311.453125 286.8125 C 310.996094 286.503906 310.550781 286.175781 310.121094 285.824219 C 309.695312 285.472656 309.285156 285.101562 308.894531 284.710938 C 308.503906 284.320312 308.132812 283.910156 307.78125 283.484375 C 307.429688 283.054688 307.101562 282.613281 306.792969 282.152344 C 306.488281 281.691406 306.203125 281.21875 305.941406 280.730469 C 305.679688 280.242188 305.445312 279.742188 305.234375 279.230469 C 305.023438 278.722656 304.835938 278.199219 304.675781 277.671875 C 304.515625 277.140625 304.378906 276.605469 304.273438 276.0625 C 304.164062 275.519531 304.082031 274.972656 304.027344 274.425781 C 303.976562 273.875 303.949219 273.320312 303.949219 272.769531 C 303.949219 272.214844 303.976562 271.664062 304.027344 271.113281 C 304.082031 270.5625 304.164062 270.015625 304.273438 269.472656 C 304.378906 268.929688 304.515625 268.394531 304.675781 267.867188 C 304.835938 267.335938 305.023438 266.816406 305.234375 266.304688 C 305.445312 265.792969 305.679688 265.292969 305.941406 264.804688 C 306.203125 264.320312 306.488281 263.84375 306.792969 263.382812 C 307.101562 262.925781 307.429688 262.480469 307.78125 262.054688 C 308.132812 261.625 308.503906 261.214844 308.894531 260.824219 C 309.285156 260.433594 309.695312 260.0625 310.121094 259.710938 C 310.550781 259.359375 310.996094 259.03125 311.453125 258.722656 C 311.914062 258.417969 312.386719 258.132812 312.875 257.871094 C 313.363281 257.613281 313.863281 257.375 314.375 257.164062 C 314.886719 256.953125 315.40625 256.765625 315.933594 256.605469 C 316.464844 256.445312 317 256.308594 317.542969 256.203125 C 318.085938 256.09375 318.632812 256.011719 319.183594 255.960938 C 319.734375 255.90625 320.285156 255.878906 320.839844 255.878906 C 321.390625 255.878906 321.941406 255.90625 322.492188 255.960938 C 323.042969 256.011719 323.589844 256.09375 324.132812 256.203125 C 324.675781 256.308594 325.210938 256.445312 325.742188 256.605469 C 326.269531 256.765625 326.789062 256.953125 327.300781 257.164062 C 327.8125 257.375 328.3125 257.613281 328.800781 257.871094 C 329.289062 258.132812 329.761719 258.417969 330.222656 258.722656 C 330.683594 259.03125 331.125 259.359375 331.554688 259.710938 C 331.980469 260.0625 332.390625 260.433594 332.78125 260.824219 C 333.171875 261.214844 333.542969 261.625 333.894531 262.054688 C 334.246094 262.480469 334.574219 262.925781 334.882812 263.382812 C 335.191406 263.84375 335.472656 264.320312 335.734375 264.804688 C 335.996094 265.292969 336.230469 265.792969 336.441406 266.304688 C 336.65625 266.816406 336.839844 267.335938 337 267.867188 C 337.160156 268.394531 337.296875 268.929688 337.402344 269.472656 C 337.511719 270.015625 337.59375 270.5625 337.648438 271.113281 C 337.703125 271.664062 337.730469 272.214844 337.730469 272.769531 Z M 337.730469 272.769531 " fill-opacity="1" fill-rule="nonzero"/><path fill="#f3705a" d="M 391.777344 272.769531 C 391.777344 273.320312 391.75 273.875 391.695312 274.425781 C 391.644531 274.972656 391.5625 275.519531 391.453125 276.0625 C 391.347656 276.605469 391.210938 277.140625 391.050781 277.671875 C 390.890625 278.199219 390.703125 278.722656 390.492188 279.230469 C 390.28125 279.742188 390.042969 280.242188 389.785156 280.730469 C 389.523438 281.21875 389.238281 281.691406 388.933594 282.152344 C 388.625 282.613281 388.296875 283.054688 387.945312 283.484375 C 387.59375 283.910156 387.222656 284.320312 386.832031 284.710938 C 386.441406 285.101562 386.03125 285.472656 385.601562 285.824219 C 385.175781 286.175781 384.730469 286.503906 384.273438 286.8125 C 383.8125 287.121094 383.335938 287.402344 382.851562 287.664062 C 382.363281 287.925781 381.863281 288.160156 381.351562 288.375 C 380.839844 288.585938 380.320312 288.769531 379.789062 288.929688 C 379.261719 289.09375 378.726562 289.226562 378.183594 289.335938 C 377.640625 289.441406 377.09375 289.523438 376.542969 289.578125 C 375.992188 289.632812 375.441406 289.660156 374.886719 289.660156 C 374.335938 289.660156 373.78125 289.632812 373.230469 289.578125 C 372.683594 289.523438 372.136719 289.441406 371.59375 289.335938 C 371.050781 289.226562 370.515625 289.09375 369.984375 288.929688 C 369.457031 288.769531 368.933594 288.585938 368.425781 288.375 C 367.914062 288.160156 367.414062 287.925781 366.925781 287.664062 C 366.4375 287.402344 365.964844 287.121094 365.503906 286.8125 C 365.042969 286.503906 364.601562 286.175781 364.171875 285.824219 C 363.746094 285.472656 363.335938 285.101562 362.945312 284.710938 C 362.554688 284.320312 362.183594 283.910156 361.832031 283.484375 C 361.480469 283.054688 361.152344 282.613281 360.84375 282.152344 C 360.535156 281.691406 360.253906 281.21875 359.992188 280.730469 C 359.730469 280.242188 359.496094 279.742188 359.28125 279.230469 C 359.070312 278.722656 358.886719 278.199219 358.726562 277.671875 C 358.5625 277.140625 358.429688 276.605469 358.320312 276.0625 C 358.214844 275.519531 358.132812 274.972656 358.078125 274.425781 C 358.023438 273.875 357.996094 273.320312 357.996094 272.769531 C 357.996094 272.214844 358.023438 271.664062 358.078125 271.113281 C 358.132812 270.5625 358.214844 270.015625 358.320312 269.472656 C 358.429688 268.929688 358.5625 268.394531 358.726562 267.867188 C 358.886719 267.335938 359.070312 266.816406 359.28125 266.304688 C 359.496094 265.792969 359.730469 265.292969 359.992188 264.804688 C 360.253906 264.320312 360.535156 263.84375 360.84375 263.382812 C 361.152344 262.925781 361.480469 262.480469 361.832031 262.054688 C 362.183594 261.625 362.554688 261.214844 362.945312 260.824219 C 363.335938 260.433594 363.746094 260.0625 364.171875 259.710938 C 364.601562 259.359375 365.042969 259.03125 365.503906 258.722656 C 365.964844 258.417969 366.4375 258.132812 366.925781 257.871094 C 367.414062 257.613281 367.914062 257.375 368.425781 257.164062 C 368.933594 256.953125 369.457031 256.765625 369.984375 256.605469 C 370.515625 256.445312 371.050781 256.308594 371.59375 256.203125 C 372.136719 256.09375 372.683594 256.011719 373.230469 255.960938 C 373.78125 255.90625 374.335938 255.878906 374.886719 255.878906 C 375.441406 255.878906 375.992188 255.90625 376.542969 255.960938 C 377.09375 256.011719 377.640625 256.09375 378.183594 256.203125 C 378.726562 256.308594 379.261719 256.445312 379.789062 256.605469 C 380.320312 256.765625 380.839844 256.953125 381.351562 257.164062 C 381.863281 257.375 382.363281 257.613281 382.851562 257.871094 C 383.335938 258.132812 383.8125 258.417969 384.273438 258.722656 C 384.730469 259.03125 385.175781 259.359375 385.601562 259.710938 C 386.03125 260.0625 386.441406 260.433594 386.832031 260.824219 C 387.222656 261.214844 387.59375 261.625 387.945312 262.054688 C 388.296875 262.480469 388.625 262.925781 388.933594 263.382812 C 389.238281 263.84375 389.523438 264.320312 389.785156 264.804688 C 390.042969 265.292969 390.28125 265.792969 390.492188 266.304688 C 390.703125 266.816406 390.890625 267.335938 391.050781 267.867188 C 391.210938 268.394531 391.347656 268.929688 391.453125 269.472656 C 391.5625 270.015625 391.644531 270.5625 391.695312 271.113281 C 391.75 271.664062 391.777344 272.214844 391.777344 272.769531 Z M 391.777344 272.769531 " fill-opacity="1" fill-rule="nonzero"/><path fill="#ffd15c" d="M 445.828125 272.769531 C 445.828125 273.320312 445.800781 273.875 445.746094 274.425781 C 445.691406 274.972656 445.609375 275.519531 445.503906 276.0625 C 445.394531 276.605469 445.261719 277.140625 445.101562 277.671875 C 444.941406 278.199219 444.753906 278.722656 444.542969 279.230469 C 444.332031 279.742188 444.09375 280.242188 443.832031 280.730469 C 443.574219 281.21875 443.289062 281.691406 442.980469 282.152344 C 442.675781 282.613281 442.34375 283.054688 441.992188 283.484375 C 441.644531 283.910156 441.273438 284.320312 440.878906 284.710938 C 440.488281 285.101562 440.082031 285.472656 439.652344 285.824219 C 439.226562 286.175781 438.78125 286.503906 438.320312 286.8125 C 437.859375 287.121094 437.386719 287.402344 436.898438 287.664062 C 436.410156 287.925781 435.914062 288.160156 435.402344 288.375 C 434.890625 288.585938 434.371094 288.769531 433.839844 288.929688 C 433.3125 289.09375 432.773438 289.226562 432.234375 289.335938 C 431.691406 289.441406 431.144531 289.523438 430.59375 289.578125 C 430.042969 289.632812 429.492188 289.660156 428.9375 289.660156 C 428.382812 289.660156 427.832031 289.632812 427.28125 289.578125 C 426.730469 289.523438 426.183594 289.441406 425.640625 289.335938 C 425.101562 289.226562 424.5625 289.09375 424.035156 288.929688 C 423.503906 288.769531 422.984375 288.585938 422.472656 288.375 C 421.960938 288.160156 421.464844 287.925781 420.976562 287.664062 C 420.488281 287.402344 420.011719 287.121094 419.554688 286.8125 C 419.09375 286.503906 418.648438 286.175781 418.222656 285.824219 C 417.792969 285.472656 417.386719 285.101562 416.992188 284.710938 C 416.601562 284.320312 416.230469 283.910156 415.882812 283.484375 C 415.53125 283.054688 415.199219 282.613281 414.894531 282.152344 C 414.585938 281.691406 414.300781 281.21875 414.042969 280.730469 C 413.78125 280.242188 413.542969 279.742188 413.332031 279.230469 C 413.121094 278.722656 412.933594 278.199219 412.773438 277.671875 C 412.613281 277.140625 412.480469 276.605469 412.371094 276.0625 C 412.261719 275.519531 412.183594 274.972656 412.128906 274.425781 C 412.074219 273.875 412.046875 273.320312 412.046875 272.769531 C 412.046875 272.214844 412.074219 271.664062 412.128906 271.113281 C 412.183594 270.5625 412.261719 270.015625 412.371094 269.472656 C 412.480469 268.929688 412.613281 268.394531 412.773438 267.867188 C 412.933594 267.335938 413.121094 266.816406 413.332031 266.304688 C 413.542969 265.792969 413.78125 265.292969 414.042969 264.804688 C 414.300781 264.320312 414.585938 263.84375 414.894531 263.382812 C 415.199219 262.925781 415.53125 262.480469 415.882812 262.054688 C 416.230469 261.625 416.601562 261.214844 416.992188 260.824219 C 417.386719 260.433594 417.792969 260.0625 418.222656 259.710938 C 418.648438 259.359375 419.09375 259.03125 419.554688 258.722656 C 420.011719 258.417969 420.488281 258.132812 420.976562 257.871094 C 421.464844 257.613281 421.960938 257.375 422.472656 257.164062 C 422.984375 256.953125 423.503906 256.765625 424.035156 256.605469 C 424.5625 256.445312 425.101562 256.308594 425.640625 256.203125 C 426.183594 256.09375 426.730469 256.011719 427.28125 255.960938 C 427.832031 255.90625 428.382812 255.878906 428.9375 255.878906 C 429.492188 255.878906 430.042969 255.90625 430.59375 255.960938 C 431.144531 256.011719 431.691406 256.09375 432.234375 256.203125 C 432.773438 256.308594 433.3125 256.445312 433.839844 256.605469 C 434.371094 256.765625 434.890625 256.953125 435.402344 257.164062 C 435.914062 257.375 436.410156 257.613281 436.898438 257.871094 C 437.386719 258.132812 437.859375 258.417969 438.320312 258.722656 C 438.78125 259.03125 439.226562 259.359375 439.652344 259.710938 C 440.082031 260.0625 440.488281 260.433594 440.878906 260.824219 C 441.273438 261.214844 441.644531 261.625 441.992188 262.054688 C 442.34375 262.480469 442.675781 262.925781 442.980469 263.382812 C 443.289062 263.84375 443.574219 264.320312 443.832031 264.804688 C 444.09375 265.292969 444.332031 265.792969 444.542969 266.304688 C 444.753906 266.816406 444.941406 267.335938 445.101562 267.867188 C 445.261719 268.394531 445.394531 268.929688 445.503906 269.472656 C 445.609375 270.015625 445.691406 270.5625 445.746094 271.113281 C 445.800781 271.664062 445.828125 272.214844 445.828125 272.769531 Z M 445.828125 272.769531 " fill-opacity="1" fill-rule="nonzero"/><path fill="#344a5e" d="M 536.328125 519.152344 L 564.992188 490.488281 L 593.65625 519.152344 L 564.992188 547.816406 Z M 536.328125 519.152344 " fill-opacity="1" fill-rule="nonzero"/><path fill="#415a6b" d="M 563.21875 517.679688 C 523.523438 557.375 459.339844 557.375 420.492188 517.679688 C 380.800781 478.832031 380.800781 414.648438 420.492188 374.957031 C 460.183594 335.261719 524.367188 335.261719 563.21875 374.957031 C 602.910156 414.648438 602.910156 478.832031 563.21875 517.679688 Z M 439.917969 394.378906 C 411.203125 423.09375 411.203125 469.542969 439.917969 498.257812 C 468.628906 526.96875 515.078125 526.96875 543.792969 498.257812 C 572.507812 469.542969 572.507812 423.09375 543.792969 394.378906 C 515.078125 365.667969 468.628906 365.667969 439.917969 394.378906 Z M 439.917969 394.378906 " fill-opacity="1" fill-rule="nonzero"/><path fill="#f3705a" d="M 614.734375 518.523438 L 564.0625 569.195312 L 614.734375 619.867188 C 629.089844 634.226562 651.890625 634.226562 665.40625 619.867188 C 679.761719 605.511719 679.761719 582.707031 665.40625 569.195312 Z M 614.734375 518.523438 " fill-opacity="1" fill-rule="nonzero"/><path fill="#f05540" d="M 615.0625 518.242188 L 623.421875 526.605469 L 572.660156 577.363281 L 564.300781 569.003906 Z M 615.0625 518.242188 " fill-opacity="1" fill-rule="nonzero"/><path fill="#f3705a" d="M 617.265625 521.058594 L 566.59375 571.730469 C 562.371094 575.953125 554.773438 575.953125 550.550781 571.730469 C 546.328125 567.507812 546.328125 559.90625 550.550781 555.683594 L 601.21875 505.011719 C 605.441406 500.789062 613.042969 500.789062 617.265625 505.011719 C 621.488281 509.234375 621.488281 516.835938 617.265625 521.058594 Z M 617.265625 521.058594 " fill-opacity="1" fill-rule="nonzero"/></svg>